# xmcd CD database file generated by OrangeCD 5.2
#
# Track frame offsets:
#	150
#	17235
#	38165
#	57327
#	75275
#	96820
#	117857
#	130700
#	147052
#	168477
#	199410
#
# Disc length: 2927 seconds
#
# Revision: 19
# Processed by: cddbd v1.5.1PL2 Copyright (c) Steve Scherf et al.
# Submitted via: OrangeCD 5.2
#
DISCID=8c0b6d0b
DTITLE=Shooting Star - Shooting Star
DYEAR=1980
DGENRE=Rock
TTITLE0=You've Got What I Need
TTITLE1=Don't Stop Now
TTITLE2=Higher
TTITLE3=Just Friends
TTITLE4=Bring It On
TTITLE5=Tonight
TTITLE6=Rainfall
TTITLE7=Midnight Man
TTITLE8=Stranger
TTITLE9=Last Chance
TTITLE10=Wild In The Street
EXTD=
EXTT0=
EXTT1=
EXTT2=
EXTT3=
EXTT4=
EXTT5=
EXTT6=
EXTT7=
EXTT8=
EXTT9=
EXTT10=
PLAYORDER=
